<svg xmlns="http://www.w3.org/2000/svg" viewBox="0 0 32 32" fill="none">
  <!-- Background with festive gradient -->
  <circle cx="16" cy="16" r="16" fill="url(#festiveGradient)"/>
  
  <!-- Outer glow ring -->
  <circle cx="16" cy="16" r="14" fill="none" stroke="url(#glowGradient)" stroke-width="1" opacity="0.6"/>
  
  <!-- Main sparkle/star in center -->
  <g transform="translate(16, 10)">
    <path d="M0 -4l1.5 3.5L5 1l-3.5 1.5L0 6l-1.5-3.5L-5 1l3.5-1.5L0 -4z" fill="#FFD700" opacity="0.95"/>
    <circle cx="0" cy="1" r="1.5" fill="#FFFFFF" opacity="0.8"/>
  </g>
  
  <!-- Mail envelope with festive styling -->
  <g transform="translate(8, 16)">
    <!-- Envelope shadow -->
    <rect x="0.5" y="2.5" width="15" height="10" rx="1.5" fill="#000000" opacity="0.1"/>
    
    <!-- Envelope body -->
    <rect x="0" y="2" width="15" height="10" rx="1.5" fill="#FFFFFF" stroke="#E5E7EB" stroke-width="0.5"/>
    
    <!-- Envelope flap with gradient -->
    <path d="M0 2L7.5 8L15 2" fill="url(#envelopeFlap)" stroke="#D1D5DB" stroke-width="0.5"/>
    
    <!-- Festive elements on envelope -->
    <circle cx="4" cy="6" r="1" fill="#EC4899" opacity="0.8"/>
    <circle cx="11" cy="6" r="1" fill="#8B5CF6" opacity="0.8"/>
    <circle cx="7.5" cy="9" r="1" fill="#10B981" opacity="0.8"/>
    
    <!-- Small sparkles on envelope -->
    <circle cx="3" cy="9" r="0.3" fill="#FFD700"/>
    <circle cx="12" cy="9" r="0.3" fill="#FFD700"/>
  </g>
  
  <!-- Floating celebration particles -->
  <g opacity="0.7">
    <!-- Confetti pieces -->
    <rect x="4" y="8" width="2" height="2" rx="0.3" fill="#EC4899" transform="rotate(45 5 9)"/>
    <rect x="26" y="12" width="1.5" height="1.5" rx="0.3" fill="#8B5CF6" transform="rotate(30 26.75 12.75)"/>
    <rect x="3" y="25" width="1.5" height="1.5" rx="0.3" fill="#10B981" transform="rotate(60 3.75 25.75)"/>
    <rect x="28" y="26" width="1.5" height="1.5" rx="0.3" fill="#F59E0B" transform="rotate(15 28.75 26.75)"/>
    
    <!-- Additional sparkles -->
    <circle cx="6" cy="6" r="0.8" fill="#FFD700"/>
    <circle cx="26" cy="7" r="0.8" fill="#FFD700"/>
    <circle cx="5" cy="27" r="0.8" fill="#FFD700"/>
    <circle cx="27" cy="28" r="0.8" fill="#FFD700"/>
    
    <!-- Small stars -->
    <path d="M25 20l0.5 1.5L27 22.5l-1.5 0.5L25 25l-0.5-1.5L23 22.5l1.5-0.5L25 20z" fill="#FFFFFF"/>
    <path d="M7 20l0.5 1.5L9 22.5l-1.5 0.5L7 25l-0.5-1.5L5 22.5l1.5-0.5L7 20z" fill="#FFFFFF"/>
  </g>
  
  <!-- Gradient definitions -->
  <defs>
    <radialGradient id="festiveGradient" cx="0.3" cy="0.2" r="1">
      <stop offset="0%" stop-color="#8B5CF6"/>
      <stop offset="40%" stop-color="#7C3AED"/>
      <stop offset="70%" stop-color="#6366F1"/>
      <stop offset="100%" stop-color="#4F46E5"/>
    </radialGradient>
    
    <linearGradient id="glowGradient" x1="0%" y1="0%" x2="100%" y2="100%">
      <stop offset="0%" stop-color="#FFD700" stop-opacity="0.8"/>
      <stop offset="50%" stop-color="#EC4899" stop-opacity="0.6"/>
      <stop offset="100%" stop-color="#8B5CF6" stop-opacity="0.4"/>
    </linearGradient>
    
    <linearGradient id="envelopeFlap" x1="0%" y1="0%" x2="100%" y2="0%">
      <stop offset="0%" stop-color="#F3F4F6"/>
      <stop offset="50%" stop-color="#FFFFFF"/>
      <stop offset="100%" stop-color="#F3F4F6"/>
    </linearGradient>
  </defs>
</svg>
